<?xml version="1.0" encoding="utf-8"?>
<!-- Generator: Adobe Illustrator 16.0.0, SVG Export Plug-In . SVG Version: 6.00 Build 0)  -->
<!DOCTYPE svg PUBLIC "-//W3C//DTD SVG 1.1//EN" "http://www.w3.org/Graphics/SVG/1.1/DTD/svg11.dtd">
<svg version="1.1" id="Layer_1" xmlns="http://www.w3.org/2000/svg" xmlns:xlink="http://www.w3.org/1999/xlink" x="0px" y="0px"
	 width="255px" height="62.333px" viewBox="0 0 255 62.333" enable-background="new 0 0 255 62.333" xml:space="preserve">
<g>
	<g>
		<path fill="#FFFFFF" d="M66.617,30.552V14.072h2.6v16.479H66.617z"/>
		<path fill="#FFFFFF" d="M72.93,30.552V14.072h7.172c0.743,0,1.427,0.154,2.054,0.464c0.626,0.31,1.164,0.716,1.613,1.219
			c0.449,0.503,0.801,1.075,1.056,1.718c0.255,0.642,0.383,1.296,0.383,1.961c0,0.558-0.078,1.091-0.232,1.602
			c-0.155,0.511-0.372,0.983-0.65,1.416c-0.279,0.434-0.619,0.809-1.021,1.126c-0.403,0.317-0.844,0.554-1.323,0.708l3.876,6.267
			h-2.948l-3.575-5.733h-3.807v5.733H72.93z M75.529,22.521h4.549c0.372,0,0.708-0.081,1.01-0.243
			c0.302-0.163,0.561-0.387,0.778-0.673c0.216-0.287,0.386-0.615,0.51-0.987c0.124-0.371,0.186-0.766,0.186-1.184
			s-0.074-0.813-0.221-1.184s-0.34-0.696-0.58-0.975c-0.24-0.279-0.519-0.499-0.836-0.662c-0.317-0.162-0.646-0.243-0.986-0.243
			h-4.41V22.521z"/>
		<path fill="#FFFFFF" d="M92.869,14.072h2.275l6.499,16.479h-2.739l-1.741-4.479h-6.36l-1.717,4.479h-2.762L92.869,14.072z
			 M96.652,24.146l-2.646-7.079l-2.739,7.079H96.652z"/>
		<path fill="#FFFFFF" d="M114.223,29.345c-0.619,0.418-1.289,0.743-2.008,0.976c-0.72,0.231-1.482,0.348-2.287,0.348
			c-1.176,0-2.248-0.239-3.215-0.72c-0.967-0.479-1.799-1.105-2.495-1.88c-0.696-0.773-1.234-1.663-1.613-2.669
			c-0.379-1.006-0.568-2.035-0.568-3.088c0-1.098,0.201-2.15,0.604-3.156c0.402-1.006,0.955-1.896,1.66-2.669
			c0.704-0.774,1.54-1.389,2.507-1.846c0.967-0.456,2.023-0.685,3.168-0.685c1.176,0,2.248,0.243,3.215,0.731
			c0.967,0.487,1.795,1.125,2.484,1.914c0.688,0.79,1.222,1.684,1.602,2.682c0.379,0.998,0.568,2.016,0.568,3.052
			c0,1.1-0.193,2.14-0.58,3.122c-0.387,0.983-0.928,1.861-1.625,2.635l2.159,2.46h-2.507L114.223,29.345z M109.952,28.323
			c0.511,0,0.99-0.069,1.439-0.208c0.449-0.14,0.859-0.333,1.23-0.581l-2.345-2.716h2.507l1.184,1.37
			c0.402-0.542,0.704-1.149,0.905-1.822c0.201-0.673,0.302-1.358,0.302-2.055c0-0.789-0.124-1.543-0.372-2.263
			s-0.6-1.357-1.056-1.915c-0.457-0.557-1.006-1.002-1.648-1.335c-0.642-0.332-1.358-0.499-2.147-0.499
			c-0.835,0-1.579,0.175-2.229,0.522c-0.65,0.349-1.199,0.805-1.648,1.37c-0.449,0.564-0.793,1.207-1.033,1.926
			c-0.24,0.72-0.36,1.451-0.36,2.193c0,0.774,0.124,1.524,0.372,2.252c0.247,0.728,0.599,1.369,1.056,1.927
			c0.456,0.557,1.009,1.002,1.659,1.334C108.42,28.157,109.147,28.323,109.952,28.323z"/>
		<path fill="#FFFFFF" d="M126.223,30.552V14.072h7.172c0.743,0,1.428,0.154,2.054,0.464c0.627,0.31,1.165,0.716,1.613,1.219
			c0.449,0.503,0.801,1.075,1.057,1.718c0.255,0.642,0.383,1.296,0.383,1.961c0,0.558-0.077,1.091-0.232,1.602
			c-0.154,0.511-0.371,0.983-0.649,1.416c-0.278,0.434-0.619,0.809-1.021,1.126s-0.844,0.554-1.323,0.708l3.877,6.267h-2.948
			l-3.574-5.733h-3.807v5.733H126.223z M128.823,22.521h4.549c0.371,0,0.708-0.081,1.01-0.243c0.302-0.163,0.561-0.387,0.777-0.673
			c0.217-0.287,0.387-0.615,0.511-0.987c0.124-0.371,0.186-0.766,0.186-1.184s-0.073-0.813-0.22-1.184
			c-0.147-0.371-0.341-0.696-0.581-0.975c-0.239-0.279-0.519-0.499-0.835-0.662c-0.317-0.162-0.646-0.243-0.986-0.243h-4.41V22.521z
			"/>
		<path fill="#FFFFFF" d="M146.395,30.784c-0.944,0-1.803-0.167-2.576-0.499c-0.774-0.333-1.436-0.785-1.985-1.358
			c-0.549-0.572-0.975-1.237-1.276-1.996c-0.302-0.758-0.452-1.563-0.452-2.414c0-0.851,0.15-1.659,0.452-2.425
			c0.302-0.767,0.728-1.439,1.276-2.02c0.55-0.58,1.211-1.037,1.985-1.37c0.773-0.332,1.64-0.499,2.6-0.499
			c0.943,0,1.799,0.171,2.564,0.511c0.766,0.341,1.42,0.794,1.961,1.358c0.542,0.564,0.956,1.223,1.242,1.973
			c0.286,0.751,0.43,1.536,0.43,2.356c0,0.186-0.008,0.359-0.023,0.521c-0.016,0.163-0.031,0.299-0.047,0.406h-9.725
			c0.046,0.542,0.174,1.029,0.383,1.463s0.479,0.809,0.813,1.126c0.332,0.316,0.711,0.561,1.137,0.73
			c0.426,0.171,0.871,0.256,1.335,0.256c0.34,0,0.677-0.043,1.01-0.128c0.332-0.085,0.638-0.209,0.917-0.371
			c0.278-0.163,0.525-0.36,0.742-0.592c0.217-0.232,0.387-0.488,0.511-0.767l2.182,0.627c-0.417,0.913-1.11,1.659-2.077,2.24
			C148.805,30.494,147.679,30.784,146.395,30.784z M150.085,23.565c-0.047-0.511-0.174-0.982-0.383-1.416
			c-0.209-0.433-0.476-0.801-0.801-1.103s-0.704-0.537-1.138-0.708c-0.434-0.17-0.89-0.255-1.369-0.255s-0.933,0.085-1.358,0.255
			c-0.426,0.171-0.801,0.406-1.125,0.708c-0.325,0.302-0.589,0.67-0.79,1.103c-0.201,0.434-0.324,0.905-0.371,1.416H150.085z"/>
		<path fill="#FFFFFF" d="M157.93,30.784c-0.589,0-1.134-0.097-1.637-0.29s-0.937-0.46-1.3-0.801
			c-0.364-0.341-0.65-0.743-0.859-1.207c-0.209-0.465-0.313-0.967-0.313-1.509c0-0.572,0.123-1.091,0.371-1.556
			c0.247-0.464,0.6-0.866,1.056-1.207c0.456-0.34,0.998-0.604,1.625-0.789s1.319-0.278,2.077-0.278c0.572,0,1.138,0.051,1.694,0.151
			c0.558,0.101,1.061,0.235,1.509,0.406v-0.836c0-0.897-0.255-1.598-0.766-2.101s-1.246-0.755-2.205-0.755
			c-0.649,0-1.288,0.12-1.915,0.36s-1.272,0.584-1.938,1.032l-0.789-1.624c1.563-1.053,3.188-1.579,4.875-1.579
			c1.671,0,2.971,0.426,3.899,1.277c0.929,0.851,1.393,2.073,1.393,3.667v4.387c0,0.542,0.224,0.82,0.673,0.836v2.182
			c-0.247,0.047-0.46,0.077-0.638,0.093c-0.179,0.016-0.353,0.023-0.522,0.023c-0.496,0-0.879-0.124-1.149-0.371
			s-0.438-0.564-0.499-0.952l-0.069-0.766c-0.542,0.712-1.211,1.258-2.008,1.637S158.842,30.784,157.93,30.784z M158.626,28.904
			c0.618,0,1.202-0.112,1.752-0.337c0.549-0.224,0.979-0.537,1.288-0.94c0.325-0.278,0.487-0.572,0.487-0.882v-1.602
			c-0.433-0.17-0.894-0.302-1.381-0.395s-0.963-0.139-1.428-0.139c-0.913,0-1.659,0.197-2.239,0.592s-0.871,0.916-0.871,1.566
			c0,0.604,0.225,1.11,0.674,1.521C157.356,28.699,157.93,28.904,158.626,28.904z"/>
		<path fill="#FFFFFF" d="M167.817,13.607h2.554v13.439c0,0.449,0.116,0.801,0.349,1.057c0.231,0.255,0.557,0.383,0.975,0.383
			c0.17,0,0.367-0.031,0.592-0.093c0.224-0.062,0.437-0.132,0.639-0.209l0.371,1.996c-0.371,0.171-0.813,0.306-1.323,0.406
			s-0.967,0.15-1.369,0.15c-0.882,0-1.567-0.239-2.055-0.719s-0.731-1.161-0.731-2.043V13.607z"/>
		<path fill="#FFFFFF" d="M191.424,28.254v2.298h-11.305V14.072h11.096v2.298h-8.495v4.688h7.357v2.158h-7.357v5.037H191.424z"/>
		<path fill="#FFFFFF" d="M198.063,30.784c-0.976,0-1.946-0.159-2.913-0.476c-0.968-0.317-1.799-0.77-2.495-1.358l1.021-1.625
			c0.728,0.526,1.447,0.925,2.159,1.196c0.712,0.271,1.439,0.405,2.182,0.405c0.758,0,1.358-0.146,1.799-0.44
			c0.441-0.294,0.662-0.712,0.662-1.254c0-0.511-0.248-0.882-0.743-1.114c-0.495-0.231-1.269-0.487-2.321-0.766
			c-0.758-0.201-1.408-0.395-1.949-0.58c-0.542-0.186-0.983-0.402-1.323-0.65c-0.341-0.247-0.589-0.533-0.743-0.858
			s-0.231-0.72-0.231-1.184c0-0.619,0.119-1.168,0.359-1.648c0.239-0.479,0.572-0.886,0.998-1.219
			c0.426-0.332,0.925-0.584,1.497-0.754s1.191-0.256,1.857-0.256c0.912,0,1.764,0.14,2.553,0.418s1.493,0.682,2.112,1.207
			l-1.091,1.532c-1.13-0.897-2.329-1.347-3.598-1.347c-0.65,0-1.195,0.136-1.637,0.406c-0.44,0.271-0.661,0.7-0.661,1.288
			c0,0.248,0.046,0.457,0.139,0.627c0.093,0.171,0.244,0.317,0.453,0.441s0.479,0.236,0.813,0.336
			c0.332,0.102,0.746,0.213,1.241,0.337c0.82,0.201,1.528,0.402,2.124,0.604s1.087,0.438,1.474,0.708s0.674,0.588,0.859,0.952
			c0.186,0.363,0.278,0.801,0.278,1.311c0,1.161-0.438,2.078-1.312,2.751S199.563,30.784,198.063,30.784z"/>
		<path fill="#FFFFFF" d="M211.919,29.926c-0.324,0.154-0.773,0.328-1.346,0.521c-0.573,0.193-1.184,0.29-1.834,0.29
			c-0.402,0-0.781-0.054-1.138-0.162c-0.355-0.108-0.669-0.271-0.939-0.487c-0.271-0.217-0.484-0.499-0.639-0.848
			c-0.154-0.348-0.232-0.77-0.232-1.265v-7.59h-1.602v-1.974h1.602V14.42h2.554v3.992h2.646v1.974h-2.646v6.777
			c0.031,0.434,0.166,0.747,0.406,0.94c0.239,0.193,0.537,0.29,0.894,0.29c0.355,0,0.696-0.062,1.021-0.186s0.564-0.225,0.72-0.302
			L211.919,29.926z"/>
		<path fill="#FFFFFF" d="M216.909,30.784c-0.589,0-1.134-0.097-1.637-0.29s-0.937-0.46-1.3-0.801
			c-0.364-0.341-0.65-0.743-0.859-1.207c-0.209-0.465-0.313-0.967-0.313-1.509c0-0.572,0.123-1.091,0.371-1.556
			c0.247-0.464,0.6-0.866,1.056-1.207c0.456-0.34,0.998-0.604,1.625-0.789s1.319-0.278,2.077-0.278c0.572,0,1.138,0.051,1.694,0.151
			c0.558,0.101,1.061,0.235,1.509,0.406v-0.836c0-0.897-0.255-1.598-0.766-2.101s-1.246-0.755-2.205-0.755
			c-0.649,0-1.288,0.12-1.915,0.36s-1.272,0.584-1.938,1.032l-0.789-1.624c1.563-1.053,3.188-1.579,4.875-1.579
			c1.671,0,2.971,0.426,3.899,1.277c0.929,0.851,1.393,2.073,1.393,3.667v4.387c0,0.542,0.224,0.82,0.673,0.836v2.182
			c-0.247,0.047-0.46,0.077-0.638,0.093c-0.179,0.016-0.353,0.023-0.522,0.023c-0.496,0-0.879-0.124-1.149-0.371
			s-0.438-0.564-0.499-0.952l-0.069-0.766c-0.542,0.712-1.211,1.258-2.008,1.637S217.821,30.784,216.909,30.784z M217.605,28.904
			c0.618,0,1.202-0.112,1.752-0.337c0.549-0.224,0.979-0.537,1.288-0.94c0.325-0.278,0.487-0.572,0.487-0.882v-1.602
			c-0.433-0.17-0.894-0.302-1.381-0.395s-0.963-0.139-1.428-0.139c-0.913,0-1.659,0.197-2.239,0.592s-0.871,0.916-0.871,1.566
			c0,0.604,0.225,1.11,0.674,1.521C216.336,28.699,216.909,28.904,217.605,28.904z"/>
		<path fill="#FFFFFF" d="M233.436,29.926c-0.324,0.154-0.773,0.328-1.346,0.521c-0.573,0.193-1.184,0.29-1.834,0.29
			c-0.402,0-0.781-0.054-1.138-0.162c-0.355-0.108-0.669-0.271-0.939-0.487c-0.271-0.217-0.484-0.499-0.639-0.848
			c-0.154-0.348-0.232-0.77-0.232-1.265v-7.59h-1.602v-1.974h1.602V14.42h2.554v3.992h2.646v1.974h-2.646v6.777
			c0.031,0.434,0.166,0.747,0.406,0.94c0.239,0.193,0.537,0.29,0.894,0.29c0.355,0,0.696-0.062,1.021-0.186s0.564-0.225,0.72-0.302
			L233.436,29.926z"/>
		<path fill="#FFFFFF" d="M240.399,30.784c-0.944,0-1.803-0.167-2.576-0.499c-0.774-0.333-1.436-0.785-1.985-1.358
			c-0.549-0.572-0.975-1.237-1.276-1.996c-0.302-0.758-0.452-1.563-0.452-2.414c0-0.851,0.15-1.659,0.452-2.425
			c0.302-0.767,0.728-1.439,1.276-2.02c0.55-0.58,1.211-1.037,1.985-1.37c0.773-0.332,1.64-0.499,2.6-0.499
			c0.943,0,1.799,0.171,2.564,0.511c0.766,0.341,1.42,0.794,1.961,1.358c0.542,0.564,0.956,1.223,1.242,1.973
			c0.286,0.751,0.43,1.536,0.43,2.356c0,0.186-0.008,0.359-0.023,0.521c-0.016,0.163-0.031,0.299-0.047,0.406h-9.725
			c0.046,0.542,0.174,1.029,0.383,1.463s0.479,0.809,0.813,1.126c0.332,0.316,0.711,0.561,1.137,0.73
			c0.426,0.171,0.871,0.256,1.335,0.256c0.34,0,0.677-0.043,1.01-0.128c0.332-0.085,0.638-0.209,0.917-0.371
			c0.278-0.163,0.525-0.36,0.742-0.592c0.217-0.232,0.387-0.488,0.511-0.767l2.182,0.627c-0.417,0.913-1.11,1.659-2.077,2.24
			C242.81,30.494,241.684,30.784,240.399,30.784z M244.09,23.565c-0.047-0.511-0.174-0.982-0.383-1.416
			c-0.209-0.433-0.476-0.801-0.801-1.103s-0.704-0.537-1.138-0.708c-0.434-0.17-0.89-0.255-1.369-0.255s-0.933,0.085-1.358,0.255
			c-0.426,0.171-0.801,0.406-1.125,0.708c-0.325,0.302-0.589,0.67-0.79,1.103c-0.201,0.434-0.324,0.905-0.371,1.416H244.09z"/>
	</g>
	<g>
		<path fill="#FFFFFF" d="M65.944,50.578v-9.889h6.532v1.114h-5.278v3.301h4.443v1.045h-4.443v4.429H65.944z"/>
		<path fill="#FFFFFF" d="M75.665,50.718c-0.762,0-1.337-0.256-1.727-0.767c-0.39-0.51-0.585-1.271-0.585-2.283v-4.359h1.226v4.122
			c0,1.485,0.515,2.229,1.546,2.229c0.501,0,0.973-0.16,1.414-0.48s0.768-0.759,0.982-1.316v-4.554h1.226v5.766
			c0,0.288,0.13,0.437,0.39,0.445v1.059c-0.14,0.019-0.249,0.03-0.328,0.035c-0.079,0.005-0.155,0.007-0.229,0.007
			c-0.242,0-0.444-0.072-0.606-0.216c-0.163-0.144-0.249-0.322-0.258-0.536l-0.028-0.85c-0.325,0.548-0.752,0.968-1.281,1.261
			C76.876,50.571,76.296,50.718,75.665,50.718z"/>
		<path fill="#FFFFFF" d="M85.554,50.216c-0.075,0.038-0.172,0.082-0.292,0.133c-0.121,0.051-0.258,0.103-0.411,0.153
			s-0.32,0.093-0.501,0.125s-0.369,0.049-0.564,0.049c-0.446,0-0.831-0.123-1.156-0.369c-0.325-0.246-0.488-0.629-0.488-1.148V44.27
			h-0.989v-0.961h0.989v-2.424h1.226v2.424h1.63v0.961h-1.63v4.512c0.019,0.27,0.107,0.465,0.265,0.585
			c0.158,0.121,0.344,0.182,0.557,0.182c0.242,0,0.462-0.039,0.662-0.118s0.336-0.142,0.411-0.188L85.554,50.216z"/>
		<path fill="#FFFFFF" d="M88.938,50.718c-0.762,0-1.337-0.256-1.727-0.767c-0.39-0.51-0.585-1.271-0.585-2.283v-4.359h1.226v4.122
			c0,1.485,0.515,2.229,1.546,2.229c0.501,0,0.973-0.16,1.414-0.48s0.768-0.759,0.982-1.316v-4.554h1.226v5.766
			c0,0.288,0.13,0.437,0.39,0.445v1.059c-0.14,0.019-0.249,0.03-0.328,0.035c-0.079,0.005-0.155,0.007-0.229,0.007
			c-0.242,0-0.444-0.072-0.606-0.216c-0.163-0.144-0.249-0.322-0.258-0.536l-0.028-0.85c-0.325,0.548-0.752,0.968-1.281,1.261
			C90.149,50.571,89.569,50.718,88.938,50.718z"/>
		<path fill="#FFFFFF" d="M98.91,44.381c-0.613,0.019-1.154,0.176-1.623,0.474c-0.469,0.297-0.801,0.71-0.996,1.239v4.484h-1.226
			v-7.27h1.142v1.685c0.251-0.501,0.58-0.907,0.989-1.219c0.409-0.311,0.845-0.484,1.31-0.522c0.092,0,0.171,0,0.236,0
			s0.121,0.005,0.167,0.015V44.381z"/>
		<path fill="#FFFFFF" d="M103.172,50.718c-0.548,0-1.049-0.1-1.504-0.3c-0.455-0.199-0.845-0.471-1.17-0.814
			c-0.325-0.344-0.578-0.745-0.759-1.205c-0.181-0.459-0.271-0.944-0.271-1.455s0.09-0.993,0.271-1.448s0.437-0.854,0.766-1.198
			s0.722-0.615,1.177-0.814c0.455-0.2,0.956-0.3,1.504-0.3c0.547,0,1.046,0.103,1.497,0.307c0.45,0.204,0.833,0.476,1.149,0.814
			s0.56,0.733,0.731,1.185c0.171,0.45,0.257,0.917,0.257,1.399c0,0.103-0.002,0.195-0.007,0.278
			c-0.005,0.084-0.012,0.148-0.021,0.195h-6.03c0.028,0.362,0.111,0.691,0.25,0.988c0.139,0.298,0.32,0.553,0.543,0.767
			c0.223,0.214,0.476,0.381,0.759,0.501c0.283,0.121,0.583,0.182,0.898,0.182c0.223,0,0.441-0.03,0.654-0.091
			c0.214-0.061,0.413-0.142,0.599-0.244c0.186-0.102,0.35-0.228,0.494-0.376s0.253-0.315,0.328-0.501l1.059,0.292
			c-0.121,0.27-0.286,0.516-0.495,0.738s-0.451,0.416-0.724,0.578c-0.274,0.163-0.578,0.29-0.913,0.383
			C103.882,50.671,103.534,50.718,103.172,50.718z M105.665,46.456c-0.028-0.344-0.114-0.662-0.258-0.954
			c-0.144-0.293-0.325-0.541-0.543-0.745c-0.218-0.204-0.472-0.364-0.759-0.48s-0.594-0.175-0.919-0.175
			c-0.325,0-0.632,0.059-0.919,0.175c-0.288,0.116-0.541,0.278-0.759,0.487c-0.218,0.209-0.395,0.457-0.529,0.745
			c-0.135,0.288-0.216,0.604-0.244,0.947H105.665z"/>
		<path fill="#FFFFFF" d="M119.857,40.689v9.889h-1.254V46.08h-5.445v4.498h-1.253v-9.889h1.253v4.276h5.445v-4.276H119.857z"/>
		<path fill="#FFFFFF" d="M125.08,50.718c-0.548,0-1.047-0.103-1.498-0.307s-0.835-0.478-1.156-0.821s-0.569-0.743-0.745-1.198
			c-0.177-0.455-0.265-0.933-0.265-1.435c0-0.511,0.09-0.993,0.271-1.448s0.432-0.854,0.752-1.198
			c0.32-0.343,0.706-0.617,1.156-0.821c0.45-0.204,0.945-0.307,1.483-0.307c0.538,0,1.035,0.103,1.49,0.307
			c0.455,0.204,0.842,0.479,1.163,0.821c0.32,0.344,0.572,0.743,0.752,1.198s0.271,0.938,0.271,1.448
			c0,0.502-0.089,0.979-0.265,1.435c-0.177,0.455-0.428,0.854-0.752,1.198c-0.325,0.344-0.713,0.617-1.163,0.821
			C126.126,50.615,125.627,50.718,125.08,50.718z M122.67,46.971c0,0.381,0.063,0.734,0.188,1.059
			c0.125,0.325,0.297,0.608,0.515,0.85c0.218,0.242,0.474,0.432,0.766,0.571s0.606,0.209,0.94,0.209c0.334,0,0.647-0.069,0.94-0.209
			s0.55-0.332,0.773-0.578s0.397-0.533,0.522-0.863c0.125-0.329,0.188-0.685,0.188-1.065c0-0.371-0.063-0.722-0.188-1.052
			c-0.125-0.329-0.3-0.617-0.522-0.863s-0.48-0.438-0.773-0.578s-0.606-0.209-0.94-0.209c-0.334,0-0.648,0.072-0.94,0.216
			c-0.292,0.145-0.548,0.339-0.766,0.585s-0.39,0.534-0.515,0.863C122.733,46.235,122.67,46.591,122.67,46.971z"/>
		<path fill="#FFFFFF" d="M141.208,50.578h-1.226v-4.066c0-0.762-0.123-1.323-0.369-1.686s-0.611-0.543-1.094-0.543
			c-0.501,0-0.949,0.179-1.344,0.536s-0.676,0.819-0.843,1.386v4.373h-1.226v-4.066c0-0.78-0.121-1.347-0.362-1.699
			s-0.604-0.529-1.086-0.529c-0.492,0-0.938,0.174-1.337,0.522c-0.399,0.348-0.683,0.81-0.85,1.386v4.387h-1.226v-7.27h1.114v1.56
			c0.297-0.538,0.682-0.954,1.155-1.247c0.474-0.292,1.008-0.438,1.602-0.438c0.613,0,1.099,0.165,1.456,0.494
			c0.357,0.33,0.578,0.755,0.661,1.274c0.65-1.179,1.574-1.769,2.771-1.769c0.418,0,0.769,0.077,1.052,0.23
			c0.283,0.152,0.509,0.366,0.676,0.641c0.167,0.273,0.287,0.597,0.362,0.968c0.074,0.371,0.111,0.775,0.111,1.212V50.578z"/>
		<path fill="#FFFFFF" d="M146.333,50.718c-0.548,0-1.049-0.1-1.504-0.3c-0.455-0.199-0.845-0.471-1.17-0.814
			s-0.578-0.745-0.759-1.205c-0.182-0.459-0.272-0.944-0.272-1.455s0.091-0.993,0.272-1.448c0.181-0.455,0.436-0.854,0.766-1.198
			c0.329-0.344,0.722-0.615,1.177-0.814c0.455-0.2,0.956-0.3,1.504-0.3s1.047,0.103,1.498,0.307c0.45,0.204,0.833,0.476,1.148,0.814
			s0.56,0.733,0.731,1.185c0.172,0.45,0.258,0.917,0.258,1.399c0,0.103-0.003,0.195-0.007,0.278
			c-0.005,0.084-0.012,0.148-0.021,0.195h-6.03c0.027,0.362,0.111,0.691,0.25,0.988c0.14,0.298,0.321,0.553,0.544,0.767
			s0.476,0.381,0.759,0.501c0.283,0.121,0.583,0.182,0.898,0.182c0.223,0,0.44-0.03,0.654-0.091s0.413-0.142,0.599-0.244
			c0.187-0.102,0.351-0.228,0.495-0.376c0.144-0.148,0.253-0.315,0.327-0.501l1.059,0.292c-0.121,0.27-0.286,0.516-0.494,0.738
			c-0.209,0.223-0.451,0.416-0.725,0.578c-0.274,0.163-0.578,0.29-0.912,0.383C147.043,50.671,146.695,50.718,146.333,50.718z
			 M148.826,46.456c-0.028-0.344-0.114-0.662-0.258-0.954c-0.144-0.293-0.325-0.541-0.543-0.745
			c-0.219-0.204-0.472-0.364-0.759-0.48c-0.288-0.116-0.595-0.175-0.92-0.175s-0.631,0.059-0.919,0.175s-0.541,0.278-0.759,0.487
			c-0.219,0.209-0.395,0.457-0.529,0.745s-0.216,0.604-0.244,0.947H148.826z"/>
		<path fill="#FFFFFF" d="M153.896,50.718c-0.585,0-1.161-0.091-1.728-0.271c-0.566-0.182-1.054-0.443-1.462-0.787l0.528-0.821
			c0.428,0.324,0.854,0.568,1.282,0.73c0.427,0.163,0.877,0.244,1.351,0.244c0.529,0,0.949-0.104,1.261-0.313
			c0.311-0.209,0.466-0.504,0.466-0.885c0-0.176-0.041-0.327-0.125-0.452c-0.083-0.126-0.209-0.234-0.376-0.327
			s-0.381-0.177-0.641-0.251s-0.562-0.153-0.905-0.237c-0.437-0.111-0.813-0.218-1.128-0.32c-0.316-0.102-0.576-0.223-0.78-0.361
			c-0.204-0.14-0.353-0.307-0.445-0.502c-0.093-0.194-0.14-0.437-0.14-0.724c0-0.362,0.072-0.685,0.216-0.969
			c0.144-0.283,0.342-0.52,0.592-0.71c0.251-0.19,0.546-0.334,0.885-0.432s0.703-0.146,1.093-0.146c0.548,0,1.059,0.089,1.532,0.265
			c0.474,0.177,0.873,0.409,1.198,0.696l-0.558,0.738c-0.306-0.27-0.649-0.471-1.03-0.605s-0.771-0.202-1.17-0.202
			c-0.445,0-0.824,0.096-1.135,0.285c-0.312,0.19-0.467,0.495-0.467,0.912c0,0.168,0.03,0.307,0.091,0.418
			c0.06,0.111,0.16,0.209,0.299,0.293c0.14,0.083,0.318,0.158,0.536,0.223c0.219,0.065,0.48,0.135,0.787,0.209
			c0.482,0.111,0.903,0.226,1.261,0.341c0.357,0.116,0.654,0.254,0.892,0.411c0.236,0.158,0.412,0.344,0.528,0.558
			c0.116,0.213,0.175,0.473,0.175,0.779c0,0.678-0.261,1.217-0.78,1.616C155.479,50.519,154.778,50.718,153.896,50.718z"/>
	</g>
	<g>
		<path fill-rule="evenodd" clip-rule="evenodd" fill="#FFFFFF" d="M34.475,47.151c-1.885,0-3.721,0-5.58,0
			c-0.259-0.69-0.086-1.005,0.651-0.996c1.409,0.018,2.82,0.025,4.229-0.003C34.529,46.138,34.643,46.482,34.475,47.151z"/>
		<path fill-rule="evenodd" clip-rule="evenodd" fill="#FFFFFF" d="M28.902,49.342c-0.279-0.711-0.077-1.007,0.651-0.998
			c1.41,0.019,2.82,0.024,4.23-0.002c0.761-0.015,0.858,0.34,0.69,1C32.583,49.342,30.748,49.342,28.902,49.342z"/>
		<g>
			<path fill-rule="evenodd" clip-rule="evenodd" fill="#FFFFFF" d="M27.342,24.433c0.315-0.06,0.394-0.084,0.474-0.088
				c3.522-0.154,3.522-0.153,5.724,2.596c0.077,0.095,0.171,0.18,0.228,0.285c1.104,2.087,2.782,2.964,5.152,2.573
				c0.368-0.061,0.931,0.25,1.198,0.563c1.677,1.977,3.321,3.985,4.91,6.032c0.312,0.402,0.47,1.022,0.476,1.544
				c0.041,3.688,0.021,7.376,0.021,11.064c0,0.441,0,0.882,0,1.455c0.52,0.029,0.947,0.074,1.375,0.075
				c2.958,0.006,5.918-0.013,8.876,0.025c0.352,0.005,0.698,0.306,1.05,0.469c-0.362,0.187-0.72,0.531-1.083,0.535
				c-3.607,0.037-7.214,0.02-10.822,0.013c-0.117,0-0.233-0.041-0.513-0.094c0-0.409,0-0.839,0-1.269
				c0-3.972,0.025-7.944-0.029-11.916c-0.007-0.587-0.258-1.265-0.615-1.736c-1.195-1.58-2.49-3.086-3.946-4.868
				c0,6.757,0,13.231,0,19.799c-1.381,0-2.608,0-3.958,0c-0.021-0.486-0.059-0.956-0.059-1.427
				c-0.003-5.796,0.021-11.592-0.035-17.388c-0.007-0.697-0.314-1.49-0.726-2.065c-1.047-1.465-2.229-2.833-3.585-4.521
				c0,8.673,0,16.991,0,25.38c-0.435,0.047-0.743,0.11-1.05,0.111c-7.62,0.005-15.239,0.005-22.859,0.001
				c-0.569,0-1.311,0.158-0.951-1.003c4.919,0,9.844,0,14.884,0c0-6.966,0-13.8,0-20.725c1.347,0,2.578,0,3.99,0
				c0,6.889,0,13.75,0,20.677c0.693,0,1.205,0,1.873,0C27.342,41.849,27.342,33.162,27.342,24.433z"/>
			<path fill-rule="evenodd" clip-rule="evenodd" fill="#FFFFFF" d="M32.428,23.556c-0.546,0-0.988,0-1.532,0
				c0-3.466,0-6.918,0-10.472c0.46,0,0.955,0,1.532,0C32.428,16.538,32.428,19.989,32.428,23.556z"/>
			<path fill-rule="evenodd" clip-rule="evenodd" fill="#FFFFFF" d="M29.035,35.358c1.836,0,3.674,0,5.565,0
				c0,0.348,0,0.646,0,1.064c-1.73,0-3.41,0.035-5.086-0.035c-0.274-0.011-0.527-0.482-0.79-0.74
				C28.829,35.551,28.931,35.455,29.035,35.358z"/>
			<path fill-rule="evenodd" clip-rule="evenodd" fill="#FFFFFF" d="M28.936,37.545c1.833,0,3.668,0,5.501,0
				c0.077,0.09,0.154,0.179,0.23,0.269c-0.251,0.233-0.496,0.655-0.756,0.666c-1.483,0.064-2.971,0.061-4.456,0.004
				c-0.271-0.011-0.532-0.375-0.795-0.577C28.751,37.787,28.843,37.666,28.936,37.545z"/>
			<path fill-rule="evenodd" clip-rule="evenodd" fill="#FFFFFF" d="M28.958,39.659c1.684,0,3.369-0.019,5.051,0.023
				c0.202,0.005,0.396,0.333,0.593,0.512c-0.213,0.168-0.422,0.477-0.64,0.482c-1.489,0.044-2.983,0.058-4.47-0.009
				c-0.266-0.012-0.514-0.446-0.77-0.686C28.8,39.874,28.88,39.766,28.958,39.659z"/>
			<path fill-rule="evenodd" clip-rule="evenodd" fill="#FFFFFF" d="M29.004,41.883c1.805,0,3.61,0,5.463,0
				c0.245,0.597,0.25,1.01-0.562,1.008c-1.45-0.005-2.903,0.033-4.35-0.03c-0.288-0.013-0.562-0.4-0.842-0.614
				C28.811,42.125,28.908,42.003,29.004,41.883z"/>
			<path fill-rule="evenodd" clip-rule="evenodd" fill="#FFFFFF" d="M28.727,44.64c0.271-0.202,0.537-0.569,0.815-0.579
				c1.614-0.056,3.23-0.027,4.875-0.027c0.329,0.651,0.253,0.994-0.542,0.987c-1.615-0.014-3.231-0.004-4.846-0.004
				C28.929,44.892,28.828,44.766,28.727,44.64z"/>
			<path fill-rule="evenodd" clip-rule="evenodd" fill="#FFFFFF" d="M31.33,12.327c0-1.822,0-3.644,0-5.606
				c0.265,0.152,0.594,0.254,0.591,0.352c-0.025,1.765,0.259,3.555-0.142,5.292C31.63,12.352,31.48,12.339,31.33,12.327z"/>
		</g>
	</g>
</g>
</svg>
