<?xml version="1.0" encoding="utf-8"?>
<!-- Generator: Adobe Illustrator 16.0.0, SVG Export Plug-In . SVG Version: 6.00 Build 0)  -->
<!DOCTYPE svg PUBLIC "-//W3C//DTD SVG 1.1//EN" "http://www.w3.org/Graphics/SVG/1.1/DTD/svg11.dtd">
<svg version="1.1" id="Layer_1" xmlns="http://www.w3.org/2000/svg" xmlns:xlink="http://www.w3.org/1999/xlink" x="0px" y="0px"
	 width="197.795px" height="191.667px" viewBox="0 0 197.795 191.667" enable-background="new 0 0 197.795 191.667"
	 xml:space="preserve">
<g>
	<path fill-rule="evenodd" clip-rule="evenodd" fill="#FFFFFF" d="M15.426,95.743c0.008-46.505,37.244-83.444,83.925-83.26
		c46.101,0.184,83.022,37.264,83.018,83.373c-0.007,46.32-37.567,83.581-83.995,83.327C52.236,178.932,15.418,141.893,15.426,95.743
		z M23.8,95.429c-0.23,41.266,33.417,75.223,74.688,75.374c41.413,0.152,75.308-33.369,75.447-74.618
		c0.14-41.022-33.167-75.03-73.825-75.375C58.118,20.454,24.034,53.783,23.8,95.429z"/>
	<path fill-rule="evenodd" clip-rule="evenodd" fill="#FFFFFF" d="M95.942,145.939c-7.955-1.294-17.811-2.917-27.676-4.496
		c-5.892-0.943-8.063-3.706-8.453-10.28c-1.99-33.452,14.835-40.968,39.072-39.113c3.703,0.285,7.453-0.084,11.17,0.096
		c17.088,0.831,27.413,11.557,27.724,28.687c0.352,19.408,0.373,19.542-19.258,22.834
		C111.769,144.799,104.874,145.07,95.942,145.939z"/>
	<path fill-rule="evenodd" clip-rule="evenodd" fill="#FFFFFF" d="M119.385,66.535c0.101,11.232-8.645,20.21-19.978,20.512
		c-11.574,0.308-21.137-8.787-21.26-20.218c-0.12-11.093,8.783-20.111,20.121-20.384C110.214,46.159,119.281,54.784,119.385,66.535z
		"/>
</g>
</svg>
