<?xml version="1.0" encoding="utf-8"?>
<!-- Generator: Adobe Illustrator 16.0.0, SVG Export Plug-In . SVG Version: 6.00 Build 0)  -->
<!DOCTYPE svg PUBLIC "-//W3C//DTD SVG 1.1//EN" "http://www.w3.org/Graphics/SVG/1.1/DTD/svg11.dtd">
<svg version="1.1" id="Layer_1" xmlns="http://www.w3.org/2000/svg" xmlns:xlink="http://www.w3.org/1999/xlink" x="0px" y="0px"
	 width="512px" height="452px" viewBox="0 0 512 452" enable-background="new 0 0 512 452" xml:space="preserve">
<g>
	<g>
		<path fill="#FFFFFF" d="M13.539,374.794v-44.72h7.054v44.72H13.539z"/>
		<path fill="#FFFFFF" d="M30.67,374.794v-44.72h19.462c2.016,0,3.874,0.42,5.574,1.26s3.159,1.942,4.377,3.307
			c1.217,1.365,2.173,2.919,2.866,4.661c0.693,1.742,1.04,3.517,1.04,5.322c0,1.512-0.21,2.96-0.63,4.346
			c-0.42,1.386-1.008,2.667-1.764,3.842c-0.756,1.177-1.68,2.195-2.771,3.056c-1.092,0.86-2.289,1.501-3.59,1.921l10.519,17.006h-8
			l-9.7-15.558h-10.33v15.558H30.67z M37.724,353.001h12.345c1.008,0,1.921-0.221,2.74-0.661c0.819-0.441,1.521-1.05,2.11-1.827
			c0.587-0.776,1.049-1.669,1.386-2.677c0.335-1.008,0.503-2.078,0.503-3.212s-0.2-2.205-0.598-3.213
			c-0.399-1.008-0.924-1.89-1.575-2.646c-0.651-0.756-1.407-1.354-2.268-1.795c-0.861-0.44-1.753-0.661-2.677-0.661H37.724V353.001z
			"/>
		<path fill="#FFFFFF" d="M84.775,330.074h6.172l17.636,44.72h-7.433l-4.724-12.156H79.169l-4.661,12.156h-7.495L84.775,330.074z
			 M95.042,357.41l-7.181-19.211l-7.432,19.211H95.042z"/>
		<path fill="#FFFFFF" d="M142.722,371.519c-1.68,1.134-3.496,2.016-5.448,2.646s-4.021,0.944-6.204,0.944
			c-3.191,0-6.1-0.65-8.724-1.952c-2.625-1.301-4.881-3.002-6.771-5.102s-3.349-4.514-4.377-7.243
			c-1.029-2.729-1.543-5.521-1.543-8.378c0-2.98,0.545-5.836,1.638-8.565c1.091-2.729,2.592-5.144,4.503-7.243
			c1.91-2.1,4.178-3.769,6.802-5.008c2.624-1.238,5.49-1.858,8.598-1.858c3.19,0,6.099,0.662,8.724,1.984
			c2.624,1.322,4.871,3.055,6.739,5.196c1.868,2.142,3.317,4.566,4.346,7.274c1.028,2.709,1.543,5.471,1.543,8.283
			c0,2.981-0.525,5.806-1.575,8.472c-1.05,2.667-2.519,5.05-4.409,7.148l5.857,6.677h-6.802L142.722,371.519z M131.133,368.747
			c1.386,0,2.687-0.188,3.905-0.566c1.217-0.378,2.331-0.902,3.338-1.575l-6.361-7.369h6.802l3.212,3.716
			c1.091-1.469,1.91-3.117,2.457-4.944c0.545-1.826,0.819-3.685,0.819-5.574c0-2.142-0.336-4.188-1.008-6.141
			c-0.672-1.953-1.628-3.685-2.866-5.196c-1.239-1.512-2.73-2.719-4.472-3.622c-1.743-0.902-3.685-1.354-5.826-1.354
			c-2.268,0-4.283,0.472-6.046,1.417c-1.764,0.944-3.255,2.184-4.472,3.716c-1.218,1.533-2.152,3.275-2.803,5.228
			c-0.652,1.953-0.977,3.937-0.977,5.952c0,2.101,0.336,4.137,1.008,6.11c0.671,1.974,1.627,3.716,2.866,5.228
			c1.238,1.512,2.74,2.719,4.504,3.622C126.976,368.297,128.949,368.747,131.133,368.747z"/>
		<path fill="#FFFFFF" d="M175.286,374.794v-44.72h19.462c2.016,0,3.874,0.42,5.574,1.26s3.159,1.942,4.377,3.307
			c1.217,1.365,2.173,2.919,2.866,4.661c0.693,1.742,1.04,3.517,1.04,5.322c0,1.512-0.21,2.96-0.63,4.346
			c-0.42,1.386-1.008,2.667-1.764,3.842c-0.756,1.177-1.68,2.195-2.771,3.056c-1.092,0.86-2.289,1.501-3.59,1.921l10.519,17.006h-8
			l-9.7-15.558h-10.33v15.558H175.286z M182.34,353.001h12.345c1.008,0,1.921-0.221,2.74-0.661c0.819-0.441,1.521-1.05,2.11-1.827
			c0.587-0.776,1.049-1.669,1.386-2.677c0.335-1.008,0.503-2.078,0.503-3.212s-0.2-2.205-0.598-3.213
			c-0.399-1.008-0.924-1.89-1.575-2.646c-0.651-0.756-1.407-1.354-2.268-1.795c-0.861-0.44-1.753-0.661-2.677-0.661H182.34V353.001z
			"/>
		<path fill="#FFFFFF" d="M230.02,375.424c-2.562,0-4.892-0.452-6.991-1.354c-2.1-0.902-3.896-2.131-5.385-3.685
			c-1.491-1.553-2.646-3.358-3.464-5.417c-0.819-2.057-1.228-4.24-1.228-6.55s0.409-4.504,1.228-6.582
			c0.819-2.079,1.973-3.905,3.464-5.48c1.49-1.574,3.285-2.813,5.385-3.716c2.099-0.902,4.45-1.354,7.054-1.354
			c2.561,0,4.882,0.463,6.96,1.386c2.079,0.925,3.852,2.152,5.322,3.685c1.47,1.534,2.592,3.318,3.37,5.354
			c0.776,2.037,1.165,4.168,1.165,6.393c0,0.504-0.021,0.977-0.063,1.417c-0.042,0.441-0.084,0.81-0.126,1.103H220.32
			c0.126,1.471,0.473,2.793,1.04,3.968c0.567,1.177,1.301,2.195,2.204,3.056c0.903,0.86,1.931,1.522,3.086,1.983
			c1.154,0.463,2.362,0.693,3.622,0.693c0.923,0,1.836-0.115,2.74-0.347c0.902-0.23,1.732-0.567,2.488-1.008
			s1.427-0.977,2.016-1.606c0.587-0.63,1.049-1.322,1.386-2.078l5.92,1.7c-1.134,2.479-3.013,4.504-5.637,6.078
			C236.56,374.637,233.504,375.424,230.02,375.424z M240.035,355.835c-0.126-1.386-0.473-2.666-1.04-3.842
			c-0.567-1.175-1.291-2.173-2.173-2.992c-0.882-0.818-1.911-1.458-3.086-1.921c-1.176-0.462-2.415-0.692-3.716-0.692
			c-1.302,0-2.53,0.23-3.685,0.692c-1.155,0.463-2.173,1.103-3.055,1.921c-0.882,0.819-1.596,1.817-2.142,2.992
			c-0.546,1.176-0.882,2.456-1.008,3.842H240.035z"/>
		<path fill="#FFFFFF" d="M261.322,375.424c-1.597,0-3.076-0.263-4.44-0.787c-1.365-0.524-2.541-1.249-3.527-2.173
			c-0.987-0.924-1.764-2.016-2.331-3.275s-0.85-2.624-0.85-4.095c0-1.553,0.335-2.96,1.008-4.22c0.671-1.26,1.626-2.352,2.866-3.275
			c1.238-0.923,2.708-1.638,4.408-2.142c1.701-0.504,3.58-0.756,5.638-0.756c1.553,0,3.086,0.137,4.598,0.41
			s2.876,0.641,4.095,1.102v-2.268c0-2.435-0.693-4.335-2.079-5.7c-1.386-1.363-3.381-2.047-5.983-2.047
			c-1.764,0-3.496,0.326-5.196,0.977c-1.701,0.651-3.454,1.585-5.259,2.803l-2.142-4.409c4.241-2.854,8.649-4.283,13.227-4.283
			c4.535,0,8.062,1.155,10.581,3.465s3.779,5.627,3.779,9.951v11.904c0,1.471,0.608,2.227,1.827,2.268v5.921
			c-0.673,0.126-1.25,0.21-1.732,0.252c-0.483,0.041-0.956,0.063-1.417,0.063c-1.345,0-2.384-0.335-3.118-1.007
			c-0.735-0.672-1.187-1.533-1.354-2.583l-0.188-2.078c-1.471,1.932-3.286,3.412-5.448,4.44
			C266.119,374.909,263.8,375.424,261.322,375.424z M263.212,370.322c1.679,0,3.265-0.305,4.755-0.914
			c1.49-0.607,2.655-1.458,3.496-2.551c0.882-0.756,1.323-1.553,1.323-2.394v-4.346c-1.177-0.462-2.426-0.818-3.748-1.07
			c-1.323-0.252-2.614-0.378-3.874-0.378c-2.478,0-4.503,0.535-6.078,1.605c-1.574,1.071-2.361,2.488-2.361,4.252
			c0,1.638,0.607,3.014,1.826,4.125C259.769,369.766,261.322,370.322,263.212,370.322z"/>
		<path fill="#FFFFFF" d="M288.153,328.814h6.929v36.469c0,1.219,0.315,2.173,0.945,2.866c0.629,0.692,1.511,1.039,2.645,1.039
			c0.462,0,0.997-0.084,1.606-0.252c0.608-0.168,1.186-0.356,1.732-0.567l1.008,5.417c-1.008,0.463-2.205,0.83-3.591,1.103
			s-2.624,0.409-3.716,0.409c-2.394,0-4.252-0.65-5.574-1.952s-1.984-3.149-1.984-5.543V328.814z"/>
		<path fill="#FFFFFF" d="M352.21,368.559v6.235h-30.674v-44.72h30.107v6.235h-23.053v12.724h19.966v5.857h-19.966v13.668H352.21z"
			/>
		<path fill="#FFFFFF" d="M370.225,375.424c-2.646,0-5.28-0.431-7.904-1.291c-2.625-0.86-4.882-2.089-6.771-3.685l2.771-4.409
			c1.974,1.428,3.926,2.51,5.858,3.243c1.931,0.735,3.904,1.103,5.92,1.103c2.058,0,3.685-0.398,4.882-1.196
			c1.196-0.798,1.795-1.932,1.795-3.401c0-1.386-0.672-2.394-2.016-3.023s-3.443-1.322-6.299-2.078
			c-2.058-0.546-3.821-1.071-5.29-1.575c-1.471-0.504-2.667-1.091-3.591-1.764c-0.924-0.671-1.596-1.448-2.016-2.33
			s-0.63-1.953-0.63-3.213c0-1.679,0.325-3.17,0.977-4.472c0.65-1.301,1.553-2.403,2.708-3.307c1.155-0.902,2.509-1.585,4.063-2.047
			c1.553-0.462,3.232-0.693,5.038-0.693c2.478,0,4.787,0.378,6.929,1.134s4.052,1.849,5.731,3.275l-2.96,4.157
			c-3.065-2.435-6.32-3.653-9.763-3.653c-1.764,0-3.244,0.368-4.44,1.103c-1.197,0.735-1.795,1.9-1.795,3.495
			c0,0.673,0.126,1.239,0.378,1.701c0.252,0.463,0.661,0.861,1.228,1.196c0.567,0.337,1.302,0.641,2.205,0.914
			c0.902,0.273,2.025,0.577,3.369,0.913c2.226,0.546,4.146,1.092,5.764,1.638c1.616,0.546,2.949,1.187,3.999,1.921
			c1.05,0.735,1.827,1.596,2.331,2.582c0.504,0.987,0.756,2.173,0.756,3.559c0,3.149-1.188,5.638-3.559,7.464
			C377.521,374.511,374.298,375.424,370.225,375.424z"/>
		<path fill="#FFFFFF" d="M407.826,373.094c-0.882,0.42-2.101,0.893-3.653,1.417c-1.555,0.524-3.213,0.787-4.977,0.787
			c-1.092,0-2.12-0.147-3.086-0.441c-0.967-0.293-1.816-0.733-2.551-1.322c-0.735-0.588-1.313-1.354-1.732-2.299
			c-0.42-0.945-0.63-2.089-0.63-3.433v-20.597h-4.346v-5.354h4.346v-10.834h6.929v10.834h7.181v5.354h-7.181v18.392
			c0.084,1.177,0.451,2.026,1.103,2.552c0.65,0.525,1.458,0.787,2.425,0.787c0.965,0,1.89-0.168,2.771-0.504
			s1.532-0.608,1.952-0.819L407.826,373.094z"/>
		<path fill="#FFFFFF" d="M421.367,375.424c-1.597,0-3.076-0.263-4.44-0.787c-1.365-0.524-2.541-1.249-3.527-2.173
			c-0.987-0.924-1.764-2.016-2.33-3.275c-0.567-1.26-0.851-2.624-0.851-4.095c0-1.553,0.336-2.96,1.008-4.22
			c0.671-1.26,1.627-2.352,2.866-3.275c1.237-0.923,2.708-1.638,4.408-2.142c1.701-0.504,3.58-0.756,5.638-0.756
			c1.553,0,3.086,0.137,4.598,0.41s2.876,0.641,4.095,1.102v-2.268c0-2.435-0.693-4.335-2.079-5.7
			c-1.386-1.363-3.381-2.047-5.983-2.047c-1.764,0-3.496,0.326-5.196,0.977c-1.701,0.651-3.454,1.585-5.26,2.803l-2.142-4.409
			c4.241-2.854,8.65-4.283,13.228-4.283c4.535,0,8.062,1.155,10.581,3.465s3.779,5.627,3.779,9.951v11.904
			c0,1.471,0.608,2.227,1.827,2.268v5.921c-0.673,0.126-1.25,0.21-1.732,0.252c-0.483,0.041-0.956,0.063-1.417,0.063
			c-1.345,0-2.384-0.335-3.118-1.007c-0.735-0.672-1.187-1.533-1.354-2.583l-0.188-2.078c-1.471,1.932-3.286,3.412-5.448,4.44
			C426.164,374.909,423.845,375.424,421.367,375.424z M423.257,370.322c1.679,0,3.265-0.305,4.755-0.914
			c1.49-0.607,2.655-1.458,3.496-2.551c0.882-0.756,1.323-1.553,1.323-2.394v-4.346c-1.177-0.462-2.426-0.818-3.748-1.07
			c-1.323-0.252-2.614-0.378-3.874-0.378c-2.478,0-4.503,0.535-6.078,1.605c-1.574,1.071-2.361,2.488-2.361,4.252
			c0,1.638,0.607,3.014,1.826,4.125C419.813,369.766,421.367,370.322,423.257,370.322z"/>
		<path fill="#FFFFFF" d="M466.214,373.094c-0.882,0.42-2.101,0.893-3.653,1.417c-1.555,0.524-3.213,0.787-4.977,0.787
			c-1.092,0-2.12-0.147-3.086-0.441c-0.967-0.293-1.816-0.733-2.551-1.322c-0.735-0.588-1.313-1.354-1.732-2.299
			c-0.42-0.945-0.63-2.089-0.63-3.433v-20.597h-4.346v-5.354h4.346v-10.834h6.929v10.834h7.181v5.354h-7.181v18.392
			c0.084,1.177,0.451,2.026,1.103,2.552c0.65,0.525,1.458,0.787,2.425,0.787c0.965,0,1.89-0.168,2.771-0.504
			s1.532-0.608,1.952-0.819L466.214,373.094z"/>
		<path fill="#FFFFFF" d="M485.109,375.424c-2.563,0-4.893-0.452-6.991-1.354c-2.101-0.902-3.896-2.131-5.386-3.685
			c-1.491-1.553-2.646-3.358-3.464-5.417c-0.819-2.057-1.229-4.24-1.229-6.55s0.409-4.504,1.229-6.582
			c0.818-2.079,1.973-3.905,3.464-5.48c1.49-1.574,3.285-2.813,5.386-3.716c2.099-0.902,4.45-1.354,7.054-1.354
			c2.561,0,4.882,0.463,6.96,1.386c2.079,0.925,3.853,2.152,5.322,3.685c1.47,1.534,2.593,3.318,3.37,5.354
			c0.776,2.037,1.165,4.168,1.165,6.393c0,0.504-0.021,0.977-0.063,1.417c-0.043,0.441-0.085,0.81-0.126,1.103h-26.392
			c0.126,1.471,0.473,2.793,1.039,3.968c0.567,1.177,1.302,2.195,2.205,3.056c0.902,0.86,1.931,1.522,3.086,1.983
			c1.154,0.463,2.362,0.693,3.622,0.693c0.923,0,1.836-0.115,2.739-0.347c0.902-0.23,1.732-0.567,2.488-1.008
			s1.427-0.977,2.016-1.606c0.588-0.63,1.049-1.322,1.386-2.078l5.921,1.7c-1.134,2.479-3.014,4.504-5.638,6.078
			C491.648,374.637,488.594,375.424,485.109,375.424z M495.124,355.835c-0.126-1.386-0.473-2.666-1.039-3.842
			c-0.567-1.175-1.292-2.173-2.174-2.992c-0.882-0.818-1.911-1.458-3.086-1.921c-1.176-0.462-2.415-0.692-3.716-0.692
			c-1.303,0-2.53,0.23-3.685,0.692c-1.155,0.463-2.174,1.103-3.055,1.921c-0.882,0.819-1.597,1.817-2.142,2.992
			c-0.547,1.176-0.882,2.456-1.008,3.842H495.124z"/>
	</g>
	<g>
		<path fill="#FFFFFF" d="M133.737,429.137v-26.833h17.725v3.023h-14.324v8.957h12.056v2.834h-12.056v12.019H133.737z"/>
		<path fill="#FFFFFF" d="M160.117,429.515c-2.066,0-3.628-0.692-4.687-2.079c-1.058-1.385-1.587-3.451-1.587-6.197v-11.83h3.326
			v11.188c0,4.031,1.398,6.047,4.195,6.047c1.361,0,2.639-0.435,3.836-1.304c1.196-0.87,2.084-2.061,2.664-3.572v-12.358h3.326
			v15.646c0,0.781,0.353,1.185,1.058,1.21v2.872c-0.378,0.05-0.674,0.081-0.888,0.095c-0.214,0.012-0.422,0.019-0.624,0.019
			c-0.656,0-1.204-0.194-1.644-0.586c-0.441-0.39-0.674-0.875-0.699-1.455l-0.076-2.305c-0.882,1.486-2.041,2.626-3.477,3.42
			C163.405,429.118,161.831,429.515,160.117,429.515z"/>
		<path fill="#FFFFFF" d="M186.951,428.154c-0.202,0.101-0.467,0.221-0.794,0.358c-0.328,0.14-0.699,0.278-1.115,0.416
			c-0.416,0.139-0.869,0.252-1.36,0.34c-0.492,0.089-1.002,0.133-1.531,0.133c-1.209,0-2.255-0.334-3.137-1.002
			c-0.882-0.667-1.323-1.706-1.323-3.117v-13.266h-2.684v-2.608h2.684v-6.576h3.326v6.576h4.422v2.608h-4.422v12.245
			c0.05,0.73,0.289,1.26,0.718,1.587c0.428,0.328,0.932,0.491,1.512,0.491c0.655,0,1.253-0.106,1.795-0.321
			c0.542-0.214,0.913-0.384,1.115-0.51L186.951,428.154z"/>
		<path fill="#FFFFFF" d="M196.134,429.515c-2.066,0-3.628-0.692-4.687-2.079c-1.058-1.385-1.587-3.451-1.587-6.197v-11.83h3.326
			v11.188c0,4.031,1.398,6.047,4.195,6.047c1.361,0,2.639-0.435,3.836-1.304c1.196-0.87,2.084-2.061,2.664-3.572v-12.358h3.326
			v15.646c0,0.781,0.353,1.185,1.058,1.21v2.872c-0.378,0.05-0.674,0.081-0.888,0.095c-0.214,0.012-0.422,0.019-0.624,0.019
			c-0.656,0-1.204-0.194-1.644-0.586c-0.441-0.39-0.674-0.875-0.699-1.455l-0.076-2.305c-0.882,1.486-2.041,2.626-3.477,3.42
			C199.422,429.118,197.847,429.515,196.134,429.515z"/>
		<path fill="#FFFFFF" d="M223.194,412.318c-1.663,0.051-3.131,0.479-4.403,1.285c-1.272,0.807-2.173,1.928-2.702,3.363v12.17
			h-3.326v-19.729h3.099v4.573c0.681-1.36,1.575-2.463,2.684-3.307c1.108-0.844,2.292-1.316,3.553-1.418c0.251,0,0.466,0,0.642,0
			s0.327,0.014,0.454,0.038V412.318z"/>
		<path fill="#FFFFFF" d="M234.759,429.515c-1.487,0-2.848-0.271-4.082-0.813c-1.235-0.542-2.293-1.278-3.175-2.211
			c-0.882-0.932-1.568-2.022-2.06-3.27s-0.737-2.563-0.737-3.949c0-1.385,0.246-2.695,0.737-3.931
			c0.491-1.234,1.184-2.317,2.079-3.25c0.894-0.932,1.958-1.669,3.193-2.211c1.234-0.541,2.595-0.813,4.082-0.813
			c1.486,0,2.84,0.277,4.063,0.831c1.222,0.555,2.261,1.292,3.118,2.211c0.856,0.92,1.518,1.991,1.984,3.213
			c0.466,1.223,0.699,2.488,0.699,3.798c0,0.278-0.006,0.529-0.019,0.756c-0.013,0.228-0.032,0.403-0.057,0.529h-16.365
			c0.076,0.982,0.302,1.877,0.68,2.684s0.869,1.499,1.474,2.078c0.604,0.58,1.291,1.034,2.06,1.361
			c0.768,0.327,1.581,0.491,2.438,0.491c0.605,0,1.197-0.082,1.776-0.246c0.58-0.163,1.121-0.384,1.625-0.661
			c0.503-0.277,0.951-0.617,1.341-1.021c0.391-0.402,0.687-0.856,0.888-1.36l2.873,0.794c-0.328,0.73-0.775,1.397-1.342,2.003
			c-0.567,0.604-1.223,1.128-1.965,1.568c-0.744,0.44-1.568,0.787-2.476,1.039C236.687,429.389,235.742,429.515,234.759,429.515z
			 M241.524,417.95c-0.076-0.933-0.309-1.796-0.699-2.589c-0.391-0.794-0.882-1.468-1.474-2.022
			c-0.592-0.554-1.279-0.988-2.06-1.304c-0.781-0.314-1.613-0.473-2.494-0.473c-0.882,0-1.714,0.158-2.495,0.473
			c-0.781,0.315-1.468,0.756-2.06,1.322c-0.592,0.567-1.071,1.242-1.437,2.022c-0.365,0.781-0.585,1.638-0.661,2.57H241.524z"/>
		<path fill="#FFFFFF" d="M280.034,402.304v26.833h-3.401V416.93h-14.777v12.207h-3.401v-26.833h3.401v11.603h14.777v-11.603
			H280.034z"/>
		<path fill="#FFFFFF" d="M294.207,429.515c-1.486,0-2.841-0.277-4.063-0.831c-1.223-0.555-2.268-1.298-3.137-2.23
			c-0.869-0.932-1.544-2.016-2.021-3.25c-0.479-1.234-0.719-2.532-0.719-3.893c0-1.386,0.246-2.696,0.737-3.931
			s1.172-2.317,2.041-3.25s1.914-1.676,3.137-2.23c1.222-0.554,2.563-0.831,4.024-0.831c1.462,0,2.81,0.277,4.044,0.831
			c1.234,0.555,2.287,1.298,3.156,2.23s1.55,2.016,2.041,3.25s0.736,2.545,0.736,3.931c0,1.36-0.239,2.658-0.718,3.893
			s-1.159,2.318-2.041,3.25c-0.882,0.933-1.934,1.676-3.155,2.23C297.048,429.237,295.694,429.515,294.207,429.515z
			 M287.669,419.349c0,1.033,0.17,1.99,0.511,2.872c0.34,0.882,0.806,1.65,1.398,2.306c0.592,0.655,1.284,1.171,2.078,1.549
			s1.645,0.567,2.551,0.567c0.907,0,1.758-0.189,2.552-0.567s1.492-0.9,2.098-1.568c0.604-0.667,1.077-1.448,1.417-2.343
			s0.51-1.858,0.51-2.892c0-1.007-0.17-1.959-0.51-2.854c-0.34-0.894-0.813-1.675-1.417-2.343c-0.605-0.668-1.304-1.19-2.098-1.568
			s-1.645-0.567-2.552-0.567c-0.906,0-1.757,0.195-2.551,0.586s-1.486,0.92-2.078,1.587c-0.593,0.668-1.059,1.449-1.398,2.344
			C287.839,417.352,287.669,418.315,287.669,419.349z"/>
		<path fill="#FFFFFF" d="M337.972,429.137h-3.325v-11.036c0-2.065-0.335-3.59-1.002-4.572c-0.668-0.983-1.657-1.475-2.967-1.475
			c-1.36,0-2.576,0.485-3.647,1.455c-1.071,0.971-1.833,2.225-2.286,3.761v11.867h-3.326v-11.036c0-2.116-0.327-3.652-0.982-4.61
			c-0.655-0.957-1.638-1.437-2.948-1.437c-1.335,0-2.545,0.473-3.628,1.418c-1.083,0.944-1.852,2.198-2.306,3.76v11.905h-3.325
			v-19.729h3.023v4.233c0.806-1.461,1.852-2.589,3.137-3.383s2.733-1.19,4.347-1.19c1.662,0,2.979,0.447,3.949,1.342
			c0.97,0.895,1.568,2.047,1.795,3.458c1.764-3.199,4.271-4.8,7.521-4.8c1.134,0,2.085,0.208,2.854,0.624
			c0.769,0.415,1.38,0.995,1.833,1.738c0.454,0.743,0.781,1.619,0.983,2.626c0.201,1.009,0.302,2.104,0.302,3.288V429.137z"/>
		<path fill="#FFFFFF" d="M351.881,429.515c-1.487,0-2.848-0.271-4.082-0.813c-1.234-0.542-2.293-1.278-3.175-2.211
			c-0.882-0.932-1.568-2.022-2.06-3.27s-0.737-2.563-0.737-3.949c0-1.385,0.246-2.695,0.737-3.931
			c0.491-1.234,1.184-2.317,2.078-3.25c0.895-0.932,1.959-1.669,3.194-2.211c1.233-0.541,2.595-0.813,4.081-0.813
			s2.841,0.277,4.063,0.831c1.222,0.555,2.261,1.292,3.117,2.211c0.856,0.92,1.518,1.991,1.984,3.213
			c0.466,1.223,0.699,2.488,0.699,3.798c0,0.278-0.006,0.529-0.019,0.756c-0.013,0.228-0.032,0.403-0.057,0.529h-16.365
			c0.076,0.982,0.303,1.877,0.681,2.684s0.869,1.499,1.474,2.078c0.605,0.58,1.291,1.034,2.061,1.361
			c0.768,0.327,1.58,0.491,2.438,0.491c0.604,0,1.196-0.082,1.776-0.246c0.579-0.163,1.12-0.384,1.625-0.661
			c0.504-0.277,0.95-0.617,1.342-1.021c0.39-0.402,0.686-0.856,0.888-1.36l2.872,0.794c-0.327,0.73-0.774,1.397-1.342,2.003
			c-0.566,0.604-1.222,1.128-1.965,1.568s-1.568,0.787-2.476,1.039S352.863,429.515,351.881,429.515z M358.646,417.95
			c-0.075-0.933-0.309-1.796-0.699-2.589c-0.391-0.794-0.882-1.468-1.474-2.022c-0.593-0.554-1.279-0.988-2.06-1.304
			c-0.781-0.314-1.613-0.473-2.495-0.473s-1.714,0.158-2.494,0.473c-0.781,0.315-1.468,0.756-2.06,1.322
			c-0.593,0.567-1.071,1.242-1.437,2.022c-0.365,0.781-0.586,1.638-0.661,2.57H358.646z"/>
		<path fill="#FFFFFF" d="M372.401,429.515c-1.587,0-3.149-0.246-4.687-0.737s-2.859-1.202-3.968-2.135l1.436-2.23
			c1.159,0.883,2.318,1.544,3.478,1.984c1.158,0.441,2.381,0.661,3.666,0.661c1.436,0,2.575-0.283,3.42-0.85
			c0.844-0.567,1.266-1.367,1.266-2.4c0-0.479-0.113-0.888-0.34-1.229c-0.227-0.34-0.566-0.636-1.021-0.888
			c-0.453-0.252-1.033-0.479-1.738-0.681c-0.706-0.201-1.524-0.415-2.457-0.643c-1.185-0.302-2.204-0.591-3.061-0.869
			c-0.857-0.276-1.563-0.604-2.117-0.982c-0.554-0.378-0.957-0.831-1.209-1.36s-0.378-1.185-0.378-1.966
			c0-0.982,0.195-1.857,0.586-2.626s0.926-1.411,1.606-1.928c0.68-0.516,1.479-0.907,2.399-1.172s1.909-0.396,2.967-0.396
			c1.486,0,2.872,0.239,4.157,0.718c1.285,0.479,2.368,1.109,3.25,1.89l-1.512,2.003c-0.831-0.73-1.764-1.278-2.796-1.644
			c-1.034-0.365-2.092-0.548-3.175-0.548c-1.21,0-2.236,0.259-3.08,0.774c-0.845,0.517-1.267,1.342-1.267,2.476
			c0,0.453,0.082,0.831,0.246,1.134c0.163,0.303,0.435,0.567,0.813,0.794s0.862,0.429,1.455,0.604
			c0.592,0.177,1.304,0.365,2.135,0.567c1.311,0.302,2.45,0.61,3.421,0.926c0.97,0.315,1.776,0.687,2.419,1.114
			c0.643,0.429,1.12,0.933,1.436,1.512c0.315,0.58,0.473,1.285,0.473,2.117c0,1.839-0.706,3.301-2.116,4.384
			C376.697,428.973,374.795,429.515,372.401,429.515z"/>
	</g>
	<g>
		<path fill-rule="evenodd" clip-rule="evenodd" fill="#FFFFFF" d="M273.039,269.283c-11.42,0-22.546,0-33.803,0
			c-1.565-4.181-0.524-6.089,3.946-6.031c8.54,0.108,17.083,0.152,25.623-0.02C273.363,263.141,274.059,265.229,273.039,269.283z"/>
		<path fill-rule="evenodd" clip-rule="evenodd" fill="#FFFFFF" d="M239.277,282.554c-1.69-4.312-0.465-6.099,3.947-6.043
			c8.54,0.112,17.083,0.149,25.622-0.014c4.607-0.088,5.199,2.063,4.182,6.057C261.578,282.554,250.453,282.554,239.277,282.554z"/>
		<g>
			<path fill-rule="evenodd" clip-rule="evenodd" fill="#FFFFFF" d="M229.825,131.656c1.91-0.359,2.39-0.51,2.877-0.531
				c21.332-0.935,21.332-0.932,34.669,15.728c0.461,0.575,1.037,1.088,1.377,1.727c6.695,12.645,16.854,17.958,31.219,15.585
				c2.219-0.367,5.643,1.511,7.256,3.414c10.158,11.978,20.115,24.138,29.744,36.543c1.891,2.431,2.848,6.191,2.885,9.354
				c0.24,22.342,0.127,44.686,0.127,67.029c0,2.671,0,5.343,0,8.813c3.143,0.175,5.734,0.442,8.326,0.45
				c17.926,0.036,35.85-0.077,53.771,0.153c2.131,0.028,4.238,1.849,6.355,2.837c-2.186,1.129-4.355,3.219-6.553,3.242
				c-21.852,0.227-43.703,0.118-65.555,0.081c-0.705-0.004-1.412-0.252-3.113-0.572c0-2.479,0-5.082,0-7.683
				c0-24.061,0.152-48.126-0.166-72.186c-0.049-3.555-1.57-7.657-3.729-10.511c-7.24-9.576-15.078-18.699-23.91-29.492
				c0,40.931,0,80.156,0,119.944c-8.367,0-15.799,0-23.969,0c-0.129-2.94-0.357-5.792-0.363-8.645
				c-0.023-35.112,0.135-70.226-0.211-105.334c-0.043-4.225-1.904-9.029-4.393-12.516c-6.342-8.874-13.514-17.155-21.725-27.39
				c0,52.542,0,102.929,0,153.753c-2.63,0.286-4.494,0.67-6.357,0.671c-46.161,0.032-92.324,0.032-138.483,0.013
				c-3.441-0.002-7.94,0.951-5.762-6.085c29.8,0,59.633,0,90.166,0c0-42.199,0-83.599,0-125.548c8.156,0,15.611,0,24.168,0
				c0,41.731,0,83.301,0,125.258c4.195,0,7.303,0,11.348,0C229.825,237.163,229.825,184.541,229.825,131.656z"/>
			<path fill-rule="evenodd" clip-rule="evenodd" fill="#FFFFFF" d="M260.641,126.348c-3.316,0-5.991,0-9.282,0
				c0-21,0-41.908,0-63.441c2.786,0,5.776,0,9.282,0C260.641,83.831,260.641,104.733,260.641,126.348z"/>
			<path fill-rule="evenodd" clip-rule="evenodd" fill="#FFFFFF" d="M240.085,197.84c11.126,0,22.253,0,33.71,0
				c0,2.108,0,3.916,0,6.446c-10.475,0-20.657,0.209-30.811-0.21c-1.653-0.068-3.188-2.919-4.779-4.483
				C238.832,199.009,239.458,198.425,240.085,197.84z"/>
			<path fill-rule="evenodd" clip-rule="evenodd" fill="#FFFFFF" d="M239.477,211.088c11.11,0,22.218,0,33.332,0
				c0.465,0.543,0.924,1.087,1.389,1.631c-1.521,1.407-2.994,3.964-4.576,4.032c-8.986,0.392-18.005,0.372-26.996,0.023
				c-1.651-0.063-3.219-2.271-4.822-3.489C238.361,212.553,238.919,211.82,239.477,211.088z"/>
			<path fill-rule="evenodd" clip-rule="evenodd" fill="#FFFFFF" d="M239.617,223.896c10.2,0,20.402-0.109,30.598,0.143
				c1.225,0.03,2.396,2.017,3.596,3.097c-1.295,1.021-2.561,2.889-3.881,2.926c-9.021,0.263-18.063,0.351-27.078-0.056
				c-1.612-0.073-3.107-2.706-4.661-4.157C238.665,225.197,239.14,224.546,239.617,223.896z"/>
			<path fill-rule="evenodd" clip-rule="evenodd" fill="#FFFFFF" d="M239.898,237.367c10.931,0,21.864,0,33.09,0
				c1.484,3.617,1.521,6.123-3.406,6.106c-8.783-0.027-17.58,0.203-26.346-0.183c-1.753-0.076-3.402-2.422-5.1-3.723
				C238.723,238.835,239.309,238.101,239.898,237.367z"/>
			<path fill-rule="evenodd" clip-rule="evenodd" fill="#FFFFFF" d="M238.213,254.072c1.646-1.225,3.253-3.448,4.94-3.506
				c9.773-0.338,19.567-0.166,29.522-0.166c2,3.947,1.537,6.022-3.277,5.981c-9.785-0.088-19.573-0.026-29.357-0.026
				C239.431,255.595,238.821,254.831,238.213,254.072z"/>
			<path fill-rule="evenodd" clip-rule="evenodd" fill="#FFFFFF" d="M253.985,58.323c0-11.035,0-22.071,0-33.964
				c1.606,0.922,3.591,1.541,3.583,2.131c-0.156,10.687,1.564,21.53-0.864,32.054C255.797,58.471,254.892,58.397,253.985,58.323z"/>
		</g>
	</g>
</g>
</svg>
